<?xml version="1.0" encoding="utf-8"?>
<!-- Generator: Adobe Illustrator 23.0.4, SVG Export Plug-In . SVG Version: 6.00 Build 0)  -->
<svg version="1.1" id="Lag_1" xmlns="http://www.w3.org/2000/svg" xmlns:xlink="http://www.w3.org/1999/xlink" x="0px" y="0px"
	 viewBox="0 0 629.29 629.29" style="enable-background:new 0 0 629.29 629.29;" xml:space="preserve">
<style type="text/css">
	.st0{fill:#2BABE2;}
	.st1{opacity:0.2;fill:#0E1725;enable-background:new    ;}
	.st2{fill:#E71F5D;}
	.st3{fill:#0E1725;}
	.st4{fill:#FFFFFF;}
</style>
<path id="Exclusion_2" class="st0" d="M315.1,548.99c-15.8,0-31.56-1.58-47.04-4.74c-29.86-6.11-58.22-18.05-83.46-35.12
	c-37.53-25.33-66.9-61-84.57-102.68c-5.97-14.12-10.52-28.79-13.6-43.81c-6.32-31.04-6.32-63.03,0-94.07
	c6.11-29.86,18.05-58.22,35.12-83.46c25.33-37.53,61-66.9,102.68-84.57c14.12-5.97,28.79-10.52,43.81-13.6
	c31.04-6.32,63.03-6.32,94.07,0c29.86,6.11,58.22,18.05,83.46,35.12c37.53,25.33,66.9,61,84.57,102.68
	c5.97,14.12,10.52,28.79,13.6,43.81c6.32,31.04,6.32,63.03,0,94.07c-6.11,29.86-18.05,58.22-35.12,83.46
	c-25.33,37.53-61,66.9-102.68,84.57c-14.12,5.97-28.79,10.52-43.81,13.6C346.66,547.4,330.9,548.99,315.1,548.99z"/>
<path id="Path_1" class="st1" d="M387.59,219.93H275.77c-30.88,0-55.91,25.03-55.91,55.91v167.73h167.73
	c30.88,0,55.91-25.03,55.91-55.91V275.84C443.49,244.96,418.46,219.93,387.59,219.93z"/>
<rect id="Rectangle_2" x="231.03" y="342.91" class="st2" width="55.91" height="55.91"/>
<path id="Path_2" class="st3" d="M398.75,342.91V231.09H231.03v111.82h55.91v55.91h111.95v-55.91L398.75,342.91z"/>
<path id="Path_3" class="st4" d="M370.8,203.13H258.98c-30.88,0-55.91,25.03-55.91,55.91v0v167.73H370.8
	c30.88,0,55.91-25.03,55.91-55.91V259.05c0-30.88-25.02-55.91-55.9-55.92C370.81,203.13,370.8,203.13,370.8,203.13z M258.98,398.81
	h-27.96V342.9h55.91v55.91H258.98z M398.76,370.86c0,15.44-12.52,27.95-27.95,27.95h0h-55.91V342.9c15.44,0,27.95-12.52,27.95-27.95
	c0-15.44-12.52-27.95-27.95-27.95c-15.44,0-27.95,12.52-27.95,27.95h-55.91v-55.9c0-15.44,12.52-27.95,27.95-27.95l0,0H370.8
	c15.44,0,27.95,12.52,27.95,27.95c0,0,0,0,0,0V370.86z"/>
</svg>
